<?xml version="1.0" encoding="utf-8"?>
<!-- Generator: Adobe Illustrator 19.1.0, SVG Export Plug-In . SVG Version: 6.00 Build 0)  -->
<svg version="1.1" xmlns="http://www.w3.org/2000/svg" xmlns:xlink="http://www.w3.org/1999/xlink" x="0px" y="0px"
	 viewBox="0 0 220 44" style="enable-background:new 0 0 220 44;" xml:space="preserve">
<style type="text/css">
	.st0{display:none;}
	.st1{display:inline;fill-rule:evenodd;clip-rule:evenodd;fill:none;}
	.st2{fill:#546D89;}
	.st3{fill-rule:evenodd;clip-rule:evenodd;fill:#546D89;}
	.st4{fill:none;stroke:#546D89;stroke-width:2;stroke-linecap:round;stroke-miterlimit:10;}
	.st5{fill:#414042;}
	.st6{fill:none;stroke:#414042;stroke-width:2;stroke-miterlimit:10;}
	.st7{fill:#B1B1B1;}
	.st8{fill:#77787B;}
	.st9{fill-rule:evenodd;clip-rule:evenodd;fill:none;}
	.st10{fill:#546D89;stroke:#546D89;stroke-linecap:round;stroke-linejoin:round;stroke-miterlimit:10;}
	.st11{fill:none;stroke:#546D89;stroke-linecap:round;stroke-miterlimit:10;}
	.st12{fill:none;stroke:#546D89;stroke-linecap:round;stroke-linejoin:round;stroke-miterlimit:10;}
</style>
<g id="Layer_2" class="st0">
</g>
<g id="Layer_1">
	<rect x="79" y="8" class="st7" width="1" height="28"/>
	<path class="st8" d="M5,23.5c0,3.4-0.1,4.8-0.7,6.3c-0.4,1.1-1.4,2.1-3.1,3.3c-0.3,0.2-0.6,0.4-0.8,0.5c0,0-0.1,0-0.2,0
		c-0.1,0-0.2,0-0.2-0.1c0-0.1,0.1-0.2,0.3-0.3C0.6,33,0.8,32.8,1,32.6c1.4-1.4,2-2.5,2-8v-6.1c0-3.3,0-3.9,0-4.6
		c0-0.7-0.2-1.1-0.9-1.2c-0.2,0-0.5-0.1-0.7-0.1c-0.1,0-0.2,0-0.2-0.1c0-0.1,0.1-0.2,0.3-0.2c1,0,2.3,0.1,2.4,0.1
		c0.1,0,1.4-0.1,2.1-0.1c0.2,0,0.3,0,0.3,0.2c0,0.1-0.1,0.1-0.2,0.1c-0.2,0-0.3,0-0.5,0.1C5.1,12.7,5,13.1,5,13.8c0,0.7,0,1.3,0,4.6
		V23.5z"/>
	<path class="st8" d="M10.5,28.1c-0.3-0.1-0.3-0.2-0.3-0.8c0-1.1,0.1-1.9,0.1-2.3c0-0.2,0.1-0.3,0.2-0.3c0.1,0,0.1,0.1,0.1,0.2
		c0,0.2,0,0.5,0.1,0.8c0.3,1.6,1.7,2.2,3.1,2.2c2,0,3-1.5,3-2.8c0-1.5-0.6-2.3-2.4-3.8l-1-0.8c-2.3-1.8-2.8-3.2-2.8-4.6
		c0-2.3,1.7-3.8,4.4-3.8c0.8,0,1.4,0.1,2,0.2c0.4,0.1,0.6,0.1,0.7,0.1c0.2,0,0.2,0,0.2,0.1c0,0.1-0.1,0.8-0.1,2.3
		c0,0.3,0,0.5-0.1,0.5c-0.1,0-0.2-0.1-0.2-0.3c0-0.3-0.2-0.8-0.3-1.1c-0.1-0.2-0.7-1.1-2.7-1.1c-1.5,0-2.6,0.9-2.6,2.5
		c0,1.2,0.6,1.9,2.6,3.6l0.6,0.5c2.5,2,3.1,3.3,3.1,5c0,0.9-0.3,2.5-1.8,3.5c-0.9,0.6-2.1,0.9-3.2,0.9
		C12.4,28.6,11.4,28.5,10.5,28.1"/>
	<path class="st8" d="M30,22.2c0,2,0.1,3.7,0.2,4.6c0.1,0.6,0.2,1.1,0.9,1.2c0.3,0,0.8,0.1,1,0.1c0.1,0,0.2,0.1,0.2,0.1
		c0,0.1-0.1,0.2-0.3,0.2c-1.2,0-2.5-0.1-2.6-0.1c-0.1,0-1.4,0.1-2.1,0.1c-0.2,0-0.3,0-0.3-0.2c0-0.1,0-0.1,0.2-0.1
		c0.2,0,0.4,0,0.6-0.1c0.4-0.1,0.3-0.6,0.4-1.2c0.1-0.9-0.1-2.6-0.1-4.6v-9l-3,0c-1.3,0-1.7,0.2-2.1,0.7c-0.2,0.4-0.3,0.5-0.3,0.7
		c-0.1,0.2-0.1,0.2-0.2,0.2c-0.1,0-0.1-0.1-0.1-0.2c0-0.2,0.4-2,0.5-2.2c0-0.1,0.1-0.4,0.2-0.4c0.1,0,0.4,0,0.9,0.1
		c0.6,0.1,1.4-0.1,1.7-0.1h8c1.4,0,1.9,0,2.1,0c0.1,0,0.1,0.2,0.1,0.3c0,0.6-0.1,2.1-0.1,2.4c0,0.2-0.1,0.3-0.1,0.3
		c-0.1,0-0.2-0.1-0.2-0.4l0-0.2c-0.1-0.6-0.7-1.1-2.7-1.2l-2.8,0V22.2z"/>
	<path class="st8" d="M46.7,12c4.8,0,8.4,3,8.4,8c0,4.8-3.4,8.7-8.5,8.7c-5.8,0-8.2-4.5-8.2-8.4C38.3,16.8,40.8,12,46.7,12
		 M47.1,27.8c1.9,0,5.9-1.1,5.9-7.3c0-5.1-3.1-7.8-6.5-7.8c-3.5,0-6.2,2.3-6.2,7C40.3,24.6,43.3,27.8,47.1,27.8"/>
	<path class="st8" d="M59,18.4c0-3.3,0.1-3.9,0.1-4.6c0-0.7-0.2-1.1-0.9-1.2c-0.2,0-0.5-0.1-0.7-0.1c-0.1,0-0.2,0-0.2-0.1
		c0-0.1,0.1-0.2,0.3-0.2c1,0,2.3,0.1,2.4,0.1c0.2,0,1.8-0.1,2.5-0.1c1.3,0,2.8,0.1,3.9,0.9c0.5,0.4,1.5,1.4,1.5,2.9
		c0,1.6-0.7,3.1-2.6,4.9c1.7,2.2,3.2,4.1,4.4,5.4c1.1,1.2,2.1,1.4,2.6,1.5c0.4,0.1,0.7,0.1,0.8,0.1c0.1,0,0.2-0.1,0.2,0
		c0,0.1-0.1,0-0.5,0h-1.5c-1.2,0-1.7,0.1-2.3-0.2c-0.9-0.5-1.7-1.4-2.9-3c-0.9-1.2-1.9-2.6-2.3-3.1c-0.1-0.1-0.1-0.1-0.3-0.1l-2.6,0
		c-0.1,0-0.1,0.1-0.1,0.2v0.5c0,2,0,3.7,0.1,4.6c0.1,0.6,0.2,1.1,0.8,1.2c0.3,0,0.8,0.1,0.9,0.1c0.1,0,0.2,0.1,0.2,0.1
		c0,0.1-0.1,0.2-0.3,0.2c-1.2,0-2.5-0.1-2.6-0.1c0,0-1.4,0.1-2,0.1c-0.2,0-0.3,0-0.3-0.2c0-0.1,0-0.1,0.2-0.1c0.2,0,0.4,0,0.6-0.1
		c0.4-0.1,0.4-0.6,0.5-1.2c0.1-0.9,0-2.6,0-4.6V18.4z M61,20.3c0,0.1,0,0.2,0.1,0.3c0.3,0.2,1.3,0.3,2.2,0.3c0.5,0,1.1-0.1,1.6-0.4
		c0.7-0.5,1.3-1.7,1.3-3.3c0-2.7-1.4-4.3-3.7-4.3c-0.6,0-1.2,0.1-1.4,0.1c-0.1,0-0.1,0.1-0.1,0.3V20.3z"/>
	<g>
		<path class="st8" d="M90.5,15.4c0,0.9,0.2,1.6,0.7,2.1c0.5,0.5,1.2,0.7,2.1,0.7c0.9,0,1.6-0.2,2.1-0.7c0.5-0.5,0.7-1.2,0.7-2.1
			V8.1h1v7.3c0,1.2-0.3,2.1-1,2.8s-1.6,1-2.9,1s-2.2-0.3-2.9-1s-1-1.6-1-2.8V8.1h1V15.4z"/>
		<path class="st8" d="M99.9,18.9V11h0.9v1.2c0.5-0.5,0.9-0.8,1.4-1s0.9-0.3,1.3-0.3c0.7,0,1.2,0.2,1.6,0.6s0.5,1.1,0.5,1.9v5.5
			h-0.9v-5.1c0-0.8-0.1-1.3-0.3-1.6s-0.6-0.4-1.1-0.4c-0.4,0-0.8,0.1-1.2,0.4c-0.4,0.2-0.8,0.6-1.2,1.1v5.7H99.9z"/>
		<path class="st8" d="M112.6,17.9L112.6,17.9c-0.4,0.4-0.8,0.7-1.2,0.9s-0.8,0.3-1.2,0.3c-0.8,0-1.5-0.4-2-1.1s-0.8-1.7-0.8-3
			c0-1.2,0.3-2.2,0.8-3c0.5-0.7,1.2-1.1,2-1.1c0.4,0,0.9,0.1,1.2,0.3s0.8,0.5,1.1,0.9h0.1v-4h0.9v9.7c0,0.3,0,0.6,0,0.7
			s0,0.3,0.1,0.4h-0.8L112.6,17.9z M112.6,16.8v-3.7c-0.4-0.5-0.8-0.9-1.1-1.1c-0.4-0.2-0.8-0.4-1.2-0.4c-0.6,0-1.1,0.3-1.5,0.9
			c-0.3,0.6-0.5,1.4-0.5,2.4s0.2,1.9,0.5,2.4c0.3,0.6,0.8,0.9,1.5,0.9c0.4,0,0.8-0.1,1.2-0.4S112.2,17.3,112.6,16.8z"/>
		<path class="st8" d="M120.8,16.6l0.7,0.4c-0.3,0.7-0.8,1.2-1.2,1.5s-1,0.5-1.7,0.5c-1,0-1.8-0.4-2.3-1.1s-0.9-1.7-0.9-2.9
			c0-1.3,0.3-2.3,0.9-3c0.6-0.7,1.3-1.1,2.3-1.1c1,0,1.7,0.3,2.2,1s0.8,1.6,0.8,2.8v0.2l-5.2,0c0,1.1,0.2,1.9,0.6,2.5
			c0.4,0.6,1,0.9,1.7,0.9c0.5,0,0.9-0.1,1.3-0.4S120.5,17.2,120.8,16.6z M120.6,14.3c0-0.8-0.2-1.5-0.6-1.9
			c-0.4-0.5-0.9-0.7-1.5-0.7s-1.1,0.2-1.5,0.7c-0.4,0.5-0.6,1.1-0.7,1.9H120.6z"/>
		<path class="st8" d="M123.2,18.9V11h0.9v1.4h0.1c0.3-0.5,0.6-0.9,0.9-1.1c0.4-0.2,0.8-0.4,1.3-0.4h0v0.9h-0.1
			c-0.6,0-1,0.2-1.4,0.5s-0.7,0.9-0.9,1.6v5H123.2z"/>
		<path class="st8" d="M127.6,16.9c0.3,0.5,0.7,0.8,1.1,1c0.4,0.2,0.8,0.3,1.3,0.3c0.5,0,0.9-0.1,1.2-0.4c0.3-0.3,0.5-0.6,0.5-1
			c0-0.6-0.6-1.1-1.8-1.5c-0.1,0-0.2-0.1-0.2-0.1c-1-0.4-1.6-0.7-1.9-1c-0.3-0.3-0.5-0.7-0.5-1.2c0-0.6,0.2-1.1,0.7-1.5
			c0.5-0.4,1.1-0.6,1.8-0.6c0.5,0,1,0.1,1.4,0.4c0.4,0.2,0.8,0.6,1.2,1.1l-0.7,0.5c-0.3-0.4-0.6-0.7-1-0.9s-0.7-0.3-1.2-0.3
			c-0.4,0-0.8,0.1-1,0.4c-0.3,0.2-0.4,0.5-0.4,0.9c0,0.5,0.6,1,1.7,1.4c0.2,0.1,0.3,0.1,0.4,0.1c0.9,0.4,1.6,0.7,1.9,1
			c0.3,0.3,0.5,0.8,0.5,1.3c0,0.7-0.2,1.2-0.7,1.6c-0.5,0.4-1.1,0.6-1.9,0.6c-0.6,0-1.2-0.1-1.6-0.4c-0.5-0.3-0.9-0.6-1.3-1.2
			L127.6,16.9z"/>
		<path class="st8" d="M135.4,17.4c0,0.3,0.1,0.5,0.2,0.7c0.1,0.1,0.4,0.2,0.6,0.2c0.1,0,0.2,0,0.3,0c0.1,0,0.3-0.1,0.5-0.1l0,0.7
			c-0.2,0-0.4,0.1-0.6,0.1s-0.3,0-0.5,0c-0.5,0-0.9-0.1-1.2-0.4c-0.3-0.3-0.4-0.7-0.4-1.3v-5.6h-1.2V11h1.2V8.7h0.9V11h1.6v0.8h-1.6
			V17.4z"/>
		<path class="st8" d="M142.7,18.9c0-0.2-0.1-0.4-0.1-0.6s0-0.3,0-0.5c-0.4,0.4-0.9,0.7-1.3,0.9c-0.4,0.2-0.9,0.3-1.4,0.3
			c-0.6,0-1.1-0.2-1.5-0.6c-0.4-0.4-0.6-0.9-0.6-1.5c0-0.8,0.4-1.5,1.1-2s2-0.9,3.7-1.2V13c0-0.4-0.2-0.7-0.5-0.9s-0.7-0.4-1.3-0.4
			c-0.4,0-0.8,0.1-1.1,0.3c-0.3,0.2-0.6,0.5-0.8,0.9l-0.7-0.4c0.3-0.6,0.7-1,1.1-1.2c0.4-0.3,1-0.4,1.6-0.4c0.7,0,1.3,0.2,1.8,0.6
			c0.5,0.4,0.7,0.9,0.7,1.5v4.9c0,0.1,0,0.2,0,0.4s0.1,0.4,0.1,0.6H142.7z M142.5,16.9v-2.4c-1.5,0.3-2.5,0.7-3.1,1
			c-0.5,0.3-0.8,0.8-0.8,1.4c0,0.4,0.1,0.8,0.3,1c0.2,0.2,0.5,0.4,1,0.4c0.4,0,0.8-0.1,1.2-0.3C141.6,17.7,142.1,17.4,142.5,16.9z"
			/>
		<path class="st8" d="M145.9,18.9V11h0.9v1.2c0.5-0.5,0.9-0.8,1.4-1s0.9-0.3,1.3-0.3c0.7,0,1.2,0.2,1.6,0.6s0.5,1.1,0.5,1.9v5.5
			h-0.9v-5.1c0-0.8-0.1-1.3-0.3-1.6s-0.6-0.4-1.1-0.4c-0.4,0-0.8,0.1-1.2,0.4c-0.4,0.2-0.8,0.6-1.2,1.1v5.7H145.9z"/>
		<path class="st8" d="M158.6,17.9L158.6,17.9c-0.4,0.4-0.8,0.7-1.2,0.9s-0.8,0.3-1.2,0.3c-0.8,0-1.5-0.4-2-1.1s-0.8-1.7-0.8-3
			c0-1.2,0.3-2.2,0.8-3c0.5-0.7,1.2-1.1,2-1.1c0.4,0,0.9,0.1,1.2,0.3s0.8,0.5,1.1,0.9h0.1v-4h0.9v9.7c0,0.3,0,0.6,0,0.7
			s0,0.3,0.1,0.4h-0.8L158.6,17.9z M158.6,16.8v-3.7c-0.4-0.5-0.8-0.9-1.1-1.1c-0.4-0.2-0.8-0.4-1.2-0.4c-0.6,0-1.1,0.3-1.5,0.9
			c-0.3,0.6-0.5,1.4-0.5,2.4s0.2,1.9,0.5,2.4c0.3,0.6,0.8,0.9,1.5,0.9c0.4,0,0.8-0.1,1.2-0.4S158.2,17.3,158.6,16.8z"/>
		<path class="st8" d="M162,9.4V8.1h1.1v1.3H162z M162.1,18.9V11h0.9v7.8H162.1z"/>
		<path class="st8" d="M165.6,18.9V11h0.9v1.2c0.5-0.5,0.9-0.8,1.4-1s0.9-0.3,1.3-0.3c0.7,0,1.2,0.2,1.6,0.6s0.5,1.1,0.5,1.9v5.5
			h-0.9v-5.1c0-0.8-0.1-1.3-0.3-1.6s-0.6-0.4-1.1-0.4c-0.4,0-0.8,0.1-1.2,0.4c-0.4,0.2-0.8,0.6-1.2,1.1v5.7H165.6z"/>
		<path class="st8" d="M174.3,15.8L174.3,15.8c-0.3-0.4-0.6-0.7-0.7-1s-0.2-0.7-0.2-1.1c0-0.8,0.3-1.4,0.8-2c0.5-0.5,1.2-0.8,2-0.8
			c0.4,0,0.7,0,1,0.1c0.3,0.1,0.6,0.2,0.9,0.5c0.2-0.2,0.5-0.4,0.8-0.5c0.3-0.1,0.5-0.2,0.8-0.2v0.9h-0.2c-0.2,0-0.4,0-0.6,0.1
			c-0.2,0-0.3,0.1-0.4,0.2c0.2,0.2,0.3,0.5,0.4,0.8c0.1,0.3,0.1,0.5,0.1,0.8c0,0.8-0.3,1.5-0.8,2.1c-0.5,0.5-1.2,0.8-2,0.8
			c-0.2,0-0.4,0-0.6-0.1c-0.2,0-0.4-0.1-0.6-0.2c-0.3,0.1-0.5,0.2-0.7,0.3c-0.2,0.1-0.2,0.3-0.2,0.4c0,0.4,0.6,0.6,1.9,0.6
			c0.4,0,0.7,0,1,0.1c0.8,0.1,1.5,0.3,1.9,0.6c0.4,0.3,0.7,0.8,0.7,1.4c0,0.7-0.3,1.3-0.9,1.6s-1.4,0.6-2.5,0.6
			c-1,0-1.8-0.2-2.4-0.5c-0.6-0.3-0.9-0.8-0.9-1.4c0-0.3,0.1-0.6,0.3-0.9c0.2-0.3,0.5-0.5,0.9-0.7v-0.2c-0.3-0.1-0.5-0.2-0.6-0.4
			c-0.1-0.2-0.2-0.4-0.2-0.6c0-0.2,0.1-0.4,0.2-0.6S173.9,16,174.3,15.8z M175.2,18.3c-0.4,0.2-0.8,0.4-1,0.7
			c-0.2,0.2-0.3,0.5-0.3,0.8c0,0.4,0.2,0.7,0.6,1s1,0.3,1.8,0.3c0.8,0,1.4-0.1,1.9-0.4c0.4-0.3,0.7-0.6,0.7-1.1c0-0.5-0.3-0.8-0.8-1
			C177.5,18.4,176.5,18.3,175.2,18.3z M174.2,13.6c0,0.6,0.2,1.1,0.6,1.5s0.8,0.6,1.4,0.6c0.6,0,1-0.2,1.4-0.6
			c0.4-0.4,0.5-0.9,0.5-1.5s-0.2-1.1-0.5-1.5s-0.8-0.6-1.4-0.6c-0.5,0-1,0.2-1.4,0.6C174.4,12.6,174.2,13.1,174.2,13.6z"/>
		<path class="st8" d="M186.5,17.4c0,0.3,0.1,0.5,0.2,0.7c0.1,0.1,0.4,0.2,0.6,0.2c0.1,0,0.2,0,0.3,0c0.1,0,0.3-0.1,0.5-0.1l0,0.7
			c-0.2,0-0.4,0.1-0.6,0.1s-0.3,0-0.5,0c-0.5,0-0.9-0.1-1.2-0.4c-0.3-0.3-0.4-0.7-0.4-1.3v-5.6h-1.2V11h1.2V8.7h0.9V11h1.6v0.8h-1.6
			V17.4z"/>
		<path class="st8" d="M189.6,18.9V8.1h0.9v4.2c0.5-0.5,0.9-0.8,1.4-1c0.5-0.2,0.9-0.3,1.3-0.3c0.7,0,1.2,0.2,1.6,0.6
			s0.5,1.1,0.5,1.9v5.5h-0.9v-5.1c0-0.8-0.1-1.3-0.3-1.6c-0.2-0.3-0.6-0.4-1.1-0.4c-0.4,0-0.8,0.1-1.2,0.4s-0.8,0.6-1.2,1.1v5.7
			H189.6z"/>
		<path class="st8" d="M202.6,16.6l0.7,0.4c-0.3,0.7-0.8,1.2-1.2,1.5s-1,0.5-1.7,0.5c-1,0-1.8-0.4-2.3-1.1s-0.9-1.7-0.9-2.9
			c0-1.3,0.3-2.3,0.9-3c0.6-0.7,1.3-1.1,2.3-1.1c1,0,1.7,0.3,2.2,1s0.8,1.6,0.8,2.8v0.2l-5.2,0c0,1.1,0.2,1.9,0.6,2.5
			c0.4,0.6,1,0.9,1.7,0.9c0.5,0,0.9-0.1,1.3-0.4S202.3,17.2,202.6,16.6z M202.3,14.3c0-0.8-0.2-1.5-0.6-1.9
			c-0.4-0.5-0.9-0.7-1.5-0.7s-1.1,0.2-1.5,0.7c-0.4,0.5-0.6,1.1-0.7,1.9H202.3z"/>
		<path class="st8" d="M90.5,32.4c0,0.9,0.2,1.6,0.7,2.1c0.5,0.5,1.2,0.7,2.1,0.7c0.9,0,1.6-0.2,2.1-0.7c0.5-0.5,0.7-1.2,0.7-2.1
			v-7.3h1v7.3c0,1.2-0.3,2.1-1,2.8s-1.6,1-2.9,1s-2.2-0.3-2.9-1s-1-1.6-1-2.8v-7.3h1V32.4z"/>
		<path class="st8" d="M100.3,35.9v-1.4h1.2v1.4H100.3z"/>
		<path class="st8" d="M103.8,33.3l0.9-0.4c0.3,0.8,0.7,1.3,1.1,1.7c0.5,0.4,1,0.6,1.7,0.6c0.7,0,1.2-0.2,1.7-0.6
			c0.4-0.4,0.6-0.9,0.6-1.5c0-0.5-0.1-0.9-0.4-1.2c-0.3-0.3-0.7-0.6-1.4-0.9c-0.4-0.1-0.8-0.3-1.4-0.5c-0.6-0.2-1-0.3-1.1-0.4
			c-0.5-0.3-0.9-0.6-1.1-1c-0.2-0.3-0.3-0.8-0.3-1.3c0-0.9,0.3-1.6,0.8-2.1c0.6-0.5,1.3-0.8,2.3-0.8c0.9,0,1.6,0.2,2.1,0.6
			c0.6,0.4,1,1.1,1.3,1.9l-0.8,0.3c-0.3-0.7-0.6-1.2-1-1.5c-0.4-0.3-0.9-0.5-1.6-0.5c-0.6,0-1.1,0.2-1.5,0.5
			c-0.4,0.3-0.6,0.8-0.6,1.4c0,0.4,0.1,0.8,0.4,1.1c0.2,0.3,0.6,0.5,1.1,0.7c0.2,0.1,0.5,0.2,0.8,0.3c1.1,0.4,1.8,0.6,2.1,0.9
			c0.5,0.3,0.9,0.7,1.1,1.1c0.2,0.4,0.3,0.8,0.3,1.4c0,0.9-0.3,1.7-0.9,2.3c-0.6,0.6-1.4,0.8-2.4,0.8c-0.9,0-1.7-0.2-2.3-0.7
			C104.6,34.9,104.1,34.2,103.8,33.3z"/>
		<path class="st8" d="M113,35.9v-1.4h1.2v1.4H113z"/>
		<path class="st8" d="M128.8,32.6c-0.2,1.2-0.7,2-1.3,2.6c-0.6,0.6-1.4,0.9-2.4,0.9c-1.3,0-2.3-0.5-3-1.5c-0.7-1-1.1-2.4-1.1-4.2
			c0-1.8,0.4-3.1,1.1-4.1c0.7-1,1.7-1.4,3-1.4c0.9,0,1.7,0.3,2.3,0.8c0.6,0.5,1,1.3,1.3,2.3l-0.9,0.2c-0.3-0.8-0.6-1.5-1.1-1.9
			c-0.4-0.4-1-0.6-1.6-0.6c-1,0-1.7,0.4-2.2,1.2c-0.5,0.8-0.8,2-0.8,3.5c0,1.5,0.3,2.7,0.8,3.5c0.5,0.8,1.3,1.3,2.3,1.3
			c0.7,0,1.3-0.2,1.8-0.7c0.5-0.5,0.8-1.2,1-2.1L128.8,32.6z"/>
		<path class="st8" d="M129.8,32c0-1.2,0.3-2.2,0.9-3c0.6-0.7,1.4-1.1,2.3-1.1s1.8,0.4,2.3,1.1c0.6,0.7,0.9,1.7,0.9,3
			c0,1.2-0.3,2.2-0.9,3c-0.6,0.7-1.4,1.1-2.3,1.1s-1.8-0.4-2.3-1.1S129.8,33.2,129.8,32z M130.7,32c0,1,0.2,1.9,0.6,2.4
			c0.4,0.6,1,0.9,1.7,0.9c0.7,0,1.3-0.3,1.7-0.9c0.4-0.6,0.6-1.4,0.6-2.4c0-1-0.2-1.8-0.6-2.4c-0.4-0.6-1-0.9-1.7-0.9
			c-0.7,0-1.3,0.3-1.7,0.9C130.9,30.1,130.7,30.9,130.7,32z"/>
		<path class="st8" d="M137.9,35.9V28h0.9v1.2c0.5-0.5,0.9-0.8,1.4-1s0.9-0.3,1.3-0.3c0.7,0,1.2,0.2,1.6,0.6s0.5,1.1,0.5,1.9v5.5
			h-0.9v-5.1c0-0.8-0.1-1.3-0.3-1.6c-0.2-0.3-0.6-0.4-1.1-0.4c-0.4,0-0.8,0.1-1.2,0.4c-0.4,0.2-0.8,0.6-1.2,1.1v5.7H137.9z"/>
		<path class="st8" d="M145.9,33.9c0.3,0.5,0.7,0.8,1.1,1c0.4,0.2,0.8,0.3,1.3,0.3c0.5,0,0.9-0.1,1.2-0.4c0.3-0.3,0.5-0.6,0.5-1
			c0-0.6-0.6-1.1-1.8-1.5c-0.1,0-0.2-0.1-0.2-0.1c-1-0.4-1.6-0.7-1.9-1c-0.3-0.3-0.5-0.7-0.5-1.2c0-0.6,0.2-1.1,0.7-1.5
			c0.5-0.4,1.1-0.6,1.8-0.6c0.5,0,1,0.1,1.4,0.4c0.4,0.2,0.8,0.6,1.2,1.1l-0.7,0.5c-0.3-0.4-0.6-0.7-1-0.9s-0.7-0.3-1.2-0.3
			c-0.4,0-0.8,0.1-1,0.4c-0.3,0.2-0.4,0.5-0.4,0.9c0,0.5,0.6,1,1.7,1.4c0.2,0.1,0.3,0.1,0.4,0.1c0.9,0.4,1.6,0.7,1.9,1
			c0.3,0.3,0.5,0.8,0.5,1.3c0,0.7-0.2,1.2-0.7,1.6c-0.5,0.4-1.1,0.6-1.9,0.6c-0.6,0-1.2-0.1-1.6-0.4c-0.5-0.3-0.9-0.6-1.3-1.2
			L145.9,33.9z"/>
		<path class="st8" d="M153.7,34.4c0,0.3,0.1,0.5,0.2,0.7c0.1,0.1,0.4,0.2,0.6,0.2c0.1,0,0.2,0,0.3,0c0.1,0,0.3-0.1,0.5-0.1l0,0.7
			c-0.2,0-0.4,0.1-0.6,0.1c-0.2,0-0.3,0-0.5,0c-0.5,0-0.9-0.1-1.2-0.4c-0.3-0.3-0.4-0.7-0.4-1.3v-5.6h-1.2V28h1.2v-2.3h0.9V28h1.6
			v0.8h-1.6V34.4z"/>
		<path class="st8" d="M156.7,26.4v-1.3h1.1v1.3H156.7z M156.8,35.9V28h0.9v7.8H156.8z"/>
		<path class="st8" d="M161.4,34.4c0,0.3,0.1,0.5,0.2,0.7c0.1,0.1,0.4,0.2,0.6,0.2c0.1,0,0.2,0,0.3,0c0.1,0,0.3-0.1,0.5-0.1l0,0.7
			c-0.2,0-0.4,0.1-0.6,0.1c-0.2,0-0.3,0-0.5,0c-0.5,0-0.9-0.1-1.2-0.4c-0.3-0.3-0.4-0.7-0.4-1.3v-5.6h-1.2V28h1.2v-2.3h0.9V28h1.6
			v0.8h-1.6V34.4z"/>
		<path class="st8" d="M170.2,28v7.8h-0.9v-1.2c-0.5,0.5-0.9,0.8-1.4,1c-0.5,0.2-0.9,0.3-1.3,0.3c-0.7,0-1.2-0.2-1.6-0.6
			s-0.5-1-0.5-1.9V28h0.9v5.1c0,0.8,0.1,1.3,0.3,1.6c0.2,0.3,0.6,0.4,1.1,0.4c0.4,0,0.8-0.1,1.2-0.4s0.8-0.6,1.2-1.1V28H170.2z"/>
		<path class="st8" d="M173.7,34.4c0,0.3,0.1,0.5,0.2,0.7c0.1,0.1,0.4,0.2,0.6,0.2c0.1,0,0.2,0,0.3,0c0.1,0,0.3-0.1,0.5-0.1l0,0.7
			c-0.2,0-0.4,0.1-0.6,0.1c-0.2,0-0.3,0-0.5,0c-0.5,0-0.9-0.1-1.2-0.4c-0.3-0.3-0.4-0.7-0.4-1.3v-5.6h-1.2V28h1.2v-2.3h0.9V28h1.6
			v0.8h-1.6V34.4z"/>
		<path class="st8" d="M176.7,26.4v-1.3h1.1v1.3H176.7z M176.8,35.9V28h0.9v7.8H176.8z"/>
		<path class="st8" d="M179.6,32c0-1.2,0.3-2.2,0.9-3c0.6-0.7,1.4-1.1,2.3-1.1s1.8,0.4,2.3,1.1c0.6,0.7,0.9,1.7,0.9,3
			c0,1.2-0.3,2.2-0.9,3c-0.6,0.7-1.4,1.1-2.3,1.1s-1.8-0.4-2.3-1.1S179.6,33.2,179.6,32z M180.6,32c0,1,0.2,1.9,0.6,2.4
			c0.4,0.6,1,0.9,1.7,0.9c0.7,0,1.3-0.3,1.7-0.9c0.4-0.6,0.6-1.4,0.6-2.4c0-1-0.2-1.8-0.6-2.4c-0.4-0.6-1-0.9-1.7-0.9
			c-0.7,0-1.3,0.3-1.7,0.9C180.8,30.1,180.6,30.9,180.6,32z"/>
		<path class="st8" d="M187.8,35.9V28h0.9v1.2c0.5-0.5,0.9-0.8,1.4-1s0.9-0.3,1.3-0.3c0.7,0,1.2,0.2,1.6,0.6s0.5,1.1,0.5,1.9v5.5
			h-0.9v-5.1c0-0.8-0.1-1.3-0.3-1.6c-0.2-0.3-0.6-0.4-1.1-0.4c-0.4,0-0.8,0.1-1.2,0.4c-0.4,0.2-0.8,0.6-1.2,1.1v5.7H187.8z"/>
	</g>
</g>
</svg>
