<?xml version="1.0" encoding="utf-8"?>
<!-- Generator: Adobe Illustrator 19.1.0, SVG Export Plug-In . SVG Version: 6.00 Build 0)  -->
<svg version="1.1" id="Layer_1" xmlns="http://www.w3.org/2000/svg" xmlns:xlink="http://www.w3.org/1999/xlink" x="0px" y="0px"
	 viewBox="0 0 100 167.6" style="enable-background:new 0 0 100 167.6;" xml:space="preserve">
<style type="text/css">
	.st0{fill:#9E1A1D;}
	.st1{fill:#FFFFFF;}
	.st2{fill:#E9E5CA;}
</style>
<rect class="st0" width="100" height="126"/>
<path class="st1" d="M40.2,89c3.5-0.6,6.4-1.4,10.1-4.6c4.1-3.6,5.7-8.7,6.3-11.3c1-3.8,0.9-10.9,0.9-10.9v-37c0,0-0.3-8,0.3-10
	c0.6-2,1.8-3.5,2.6-4.2c1.7-1.7,5.2-2.2,5.2-2.2c1-0.2,1.2-0.6,1.2-1.1c-0.1-0.7-0.7-0.8-0.7-0.8l-25.1,0c0,0-0.6,0.1-0.7,0.8
	c-0.1,0.5,0.1,1,1.2,1.1c0,0,3.5,0.6,5.2,2.2c0.8,0.8,2,2.2,2.6,4.2c0.6,2,0.3,10,0.3,10l-0.5,36.9c0,1.6,0.2,8.4-0.2,10.8
	c-0.5,3.4-1.4,6.3-3.5,8.5c-2.2,2.2-4.2,3-7.1,3s-4.9-0.9-7-2.5c-2.1-1.6-6.1-5.2-6.1-5.2l3.8,11.9C28.9,88.6,36.3,89.6,40.2,89"/>
<path class="st1" d="M40.7,92.1c6.8-0.6,11.5-3.5,15.6-9.1c4.9-6.5,4.9-14.4,4.9-14.4V56.8V27.8v-10c0,0-0.2-1.9,0.8-3.8
	c0.9-1.9,3-3,2.9-3.2c-0.1-0.1-2.6,0.8-4.2,2.9c-1.1,1.5-1.1,3.5-1.1,4.2c0,0.6,0,7.3,0,8v31.3v9c0,0-0.1,7-2.3,11.6
	c-2.1,4.2-3.9,7.7-9.9,11c-3.5,2-6.2,2.2-9.7,2.4c-3.9,0.2-7.4-0.5-7.4-0.2C30.2,91.3,34.9,92.6,40.7,92.1"/>
<path class="st2" d="M24.5,12.8c0,0,1.4-0.2,2.3-1.4c2-2.7,0.6-4.2,0.1-4c-0.5,0.1-0.1,1.6-1.6,2.1c-1.5,0.4-2.2-1.1-4.6-1.9
	c-2.2-0.8-4.4-0.6-4.4-0.6c-4.3,0.4-8,3.4-8.2,8.6c-0.1,4,1.7,8,5.9,9.5c3.8,1.3,6.1,0.5,6.1,0.5l-1.6,1.9c0,0,0.4,0.2,1,0.6
	c0.5,0.4,0.8,0.6,0.8,0.6s1.4-1.9,3.2-3.5c1.5-1.3,2.7-2.4,4.8-3.5c2-1,4.5-2.1,4.7-1.8c0.2,0.3-1.8,1.2-2.7,2.8
	c-0.6,1-1.3,2.8-0.7,2.9c0.5,0.2,0.3,0,0.7-0.5c0.3-0.4,0.5-0.2,0.6-0.1c0.1,0.1-0.4,1.6,0.4,2.6c0.8,1.1,1.6,2,2,1.7
	c0.5-0.4-0.9-1.4-0.4-3.8c0.3-1.3,0.9-2.5,2.1-3.7c1.2-1.3,3.7-2.2,5.7-2.5c2.9-0.3,7.8,0.8,7.8,0.8l-0.1-2.1c0,0-7.5-1-11.3-1.7
	c-1.7-0.3-3.4-1.8-3.4-3.8c-0.1-2.7,2.3-3.7,2.2-4.2c-0.2-0.8-2.6,0.4-3.3,1.5c-0.6,0.9-0.9,1.8-0.9,1.8s-0.3,0.2-0.6-0.2
	c-0.4-0.4,0.1-0.7-0.4-0.7c-0.7-0.1-0.8,2.3,0.3,3.8c1.1,1.5,2.4,2.5,2.7,2.6c0.3,0.1-3.2,1-5.9,2.4c-3.2,1.6-3.4,2.2-6.4,3.1
	c-3,0.9-5.5,0.8-7.2-0.3c-1.8-1.2-3.5-3.3-3.4-6.5c0-2.9,2.3-6.5,6.2-6.4C21,9.4,22.1,12,22,13.7c0,1.6-0.8,3-2.9,3.2
	c-1.2,0.1-2.1-0.6-2.3-1.4c-0.4-1.1,0-2-0.5-2.4c-0.4-0.3-0.8,0.1-1,0.6c-0.4,1-0.5,2.3,0.1,3.5c0.5,1.1,2.1,2.3,4.2,2
	c2.2-0.2,3.7-1.4,4.4-3.1c0.5-1.2,0.6-1.9,0.5-2.6C24.6,13.3,24.5,13.1,24.5,12.8"/>
<path class="st2" d="M46.7,48.1c-0.1,6.4-2.4,9.6-2.4,9.6s-0.2-0.4-0.6-0.8c-0.5-0.4-1-0.6-1-0.6s2.3-4.7,1.8-9.1
	c-0.5-4.1-2.8-12-11.3-11.5c-2.6,0.2-5,1.5-4.9,3c0.2,1.8,1.7,2.4,1.7,2.6c0,0.2-1.3,0.5-2.3,0.1c-1-0.4-1.9-2-1.9-2
	s-3.9,2.3-3.9,6.4c0,1.7,1.7,6.1,5.4,5.7c2.3-0.3,2.8-1.9,2.8-3.1c-0.1-1.2-1.9-3.2-1.8-3.6c0.1-0.2,0.8-0.1,1.3,0.2
	c0.5,0.2,0.8,0.6,1.1,0.5c0.2-0.1,0.1-0.4,0.1-1.1c-0.1-1-0.4-1.1-0.1-1.3c0.3-0.2,1.3,1.2,1.9,1.9c0.6,0.7,1.2,1.9,1.2,1.9
	s0.2-1.3,0.6-2.4c1.1-3,2.1-3.5,2.4-3.3c0.3,0.2-0.2,0.8,0,1.9c0.1,0.8,0.3,0.8,0.3,0.8s0.3-0.3,0.9-1.4c0.4-0.8,0.6-1.6,1.1-1.5
	c0.4,0.1,0.8,1.9,0.4,3.9c-0.3,2.1-1,3.4-1,3.4s0.5,0,1.2-0.5c0.7-0.5,0.8-0.9,1.1-0.8c0.3,0.1-0.1,1-1.1,2.3c-1.4,1.8-3,2.1-3,2.1
	s0.8,0.3,1.2,1.1c0.4,0.8,0.9,1.4,0.6,1.6c-0.3,0.2-0.6-0.6-1.6-0.7c-1.1-0.1-1.8,0.4-3.3,0.7c-1.4,0.3-2-0.2-2-0.2s1.9-1,3.8-3.7
	c1.8-2.7,1.8-4,1.4-4c-0.4-0.1-0.4,0.6-1.2,1.9c-0.9,1.5-3.3,4.3-5.6,5.1c-1.9,0.6-2.5,0.7-4.8,0.1c-2.2-0.6-2.9-2-3.3-1.8
	c-0.6,0.3-0.6,5.5-2,8.3c-0.8,1.6-2.3,3.3-4.4,4.3c-2.1,1-4.6,1.4-4.7,1c-0.1-0.4,0.3-0.3,0.8-0.7c0.5-0.4,0.6-0.5,0.6-0.5
	s-0.8,0.2-2.7,0c-1.9-0.2-2.2-0.3-2.3-0.8c0-0.3,0.5-0.3,1.2-0.6c0.7-0.3,0.6-0.3,0.6-0.3s-1.1-0.9-1.8-2c-0.7-1.1-1.1-2.7-0.9-2.9
	c0.2-0.2,0.7-0.1,1.7,0.1c1,0.2,1.9,0.1,1.9,0.1s-0.4-0.5-0.6-0.8c-0.3-0.5-0.7-1.1-0.2-1.1c0.4,0,1.1,1.6,4.2,1.4
	c2.7-0.2,4.2-2.3,4.2-2.3s-0.9,3-3.4,4.2c-3,1.4-5.6-0.3-5.7,0.4c-0.1,0.9,3.4,2.5,6.8,0.6c2.8-1.6,3.8-5.5,4.2-7.9
	c0.4-2.7,0.3-7.9,0.3-7.9s-1.9,1.7-5.1,1.5c-3.7-0.2-8.1-3.8-8-9.2c0-2.3,0.3-3.4,1.1-5.6c0.5-1.2,0.7-1.4,0.8-2.5
	c0.1-0.9-0.2-1.5-0.4-1.6c-0.3-0.2,0.9,0.1,1.3,0.8c0.2,0.4,0.6,1.7,0.5,1.9C10,29.8,11.5,28,14.8,28c4.8,0,6.9,4.2,6.9,4.2
	s0.6,0.2,1.9-0.3c1.3-0.5,1.3-1.4,3.1-1.5c1.6,0,2.7,1.1,2.1,1.5c-0.5,0.3-0.1-0.2-1.6,0c-1.4,0.2-1.3,2.7-3.1,3.1
	c-0.9,0.2-1.9-0.3-2-0.6c-0.2-0.3-0.2,0-0.2,0s0,0.7-0.5,1.9c-0.5,1.4-2.6,3.7-6.1,2.8c-3.4-0.9-3.6-4.6-2.7-4.7
	c0.7-0.1,1.6,4.6,5.6,2.6c0.9-0.5,1.5-1.8,1.5-3.1c-0.1-2.4-2.4-3.9-4.4-3.9c-2.5,0-5.9,1.7-6.2,6.4c-0.2,3.2,2.3,7,5.8,7
	c6.8-0.1,8.8-7.4,16.6-9.5c5.3-1.4,8.6,0.9,8.6,0.9s0.7,0.1,0-1c-0.8-1.1-2.6-4.7-2.4-7.4c0.2-2.1,2-4.4,4.9-4.3
	c2.8,0.1,4.2,1.7,4.1,3.8c-0.2,2.6-2.9,3.1-3.2,2.5c-0.2-0.5,1.2-0.4,1.2-1.7c0.1-1.4-0.9-2.2-2.1-2.2c-1.8,0-3,1.1-2.8,3.2
	c0.1,1.6,1.3,3.1,2.4,4c1.1,0.9,1.7,1.5,1.7,1.5s-1.2,0.8-1.2,1.9c0,1,0.6,2.1,1.3,3.4c0.4,0.8,1.5,2.9,1.9,4.2
	C46.4,44.3,46.7,46.1,46.7,48.1"/>
<path class="st2" d="M16.1,31.6c0,0,0.5,0.1,0.9,0.5c0.5,0.4,0.7,0.7,0.7,0.7s-0.4,0.8-1,1.7C16.1,35.9,16,36,16,36
	s-0.1,0.1-0.9-0.3c-0.7-0.4-0.8-0.9-0.8-0.9s0.2-0.7,0.7-1.5C15.8,32.1,16.1,31.6,16.1,31.6"/>
<path class="st2" d="M14.5,40.1c0,0-0.6-0.1-1-0.3c-0.4-0.3-0.9-0.8-0.9-0.8s-0.2,0.6-0.4,1.4c-0.1,0.5-0.2,0.8-0.2,0.8
	s0.4,0.3,1.3,0.6c0.6,0.2,0.7,0.1,0.7,0.1s0,0,0.2-0.9C14.4,40.2,14.5,40.1,14.5,40.1"/>
<path class="st2" d="M11.7,46.6c0,0,0.7,0.4,1.2,0.4c0.4,0.1,0.9,0.1,0.9,0.1s0.1,2.2,0.7,4.2c0.8,2.7,1.5,3.5,1.5,3.5
	s-0.3,0.3-0.9,0.5c-0.6,0.3-1.1,0.2-1.1,0.2s-0.9-1.7-1.6-3.8C11.6,49.1,11.7,46.6,11.7,46.6"/>
<path class="st2" d="M19,63.3c0,0,1.5-1.5,2-2.5c0.4-1,0.8-2,0.8-2s1.1,0.8,2.5,0.3c1.7-0.6,2-1.7,2.2-1.6c0.2,0.1,0.2,1.4-0.5,2.4
	c-1.1,1.5-3,1.4-3,1.4s3.7,1.9,7.8,1.7c5.1-0.2,8.6-3.2,8.6-3.2s0.7,0.1,1.1,0.8c0.3,0.7,0.1,1,0.1,1s-4.2,2.9-8.3,3.4
	c-4.8,0.6-9.2-1.5-9.2-1.5s2.8,3.1,4.7,5.3c1.5,1.7,2.5,3.6,3.3,6.1C31.4,77,31,80,31,80l-1.8-1.4c0,0,0.3-1.4-0.4-3.8
	c-1-3-3.9-5.8-3.9-5.8s0.4,1.5-0.5,3.1c-0.7,1.3-1.7,1.6-1.8,1.5c-0.3-0.2,0.6-1.6,0-4.3c-0.5-2-1.1-3.5-1.9-4.4
	C19.9,64,19,63.3,19,63.3"/>
<path class="st2" d="M27.1,66.5c0,0,0.9,0.9,1.4,1.4c0.4,0.4,1,1.2,1,1.2s2.7-0.6,5.2,0.1c2.4,0.7,6.4,2.3,7,6.1
	c0.5,3.1-1.7,3.6-2.4,3.6c-0.7,0-2.2-0.4-2.2-2.1c-0.1-1.4,1.5-1.5,1.6-2c0-0.4-0.7-0.9-1.9,0c-1.4,1-1.6,2.8-0.7,4.3
	c1.3,2.2,4.3,2.2,5.6,1.3c1.7-1.1,2.6-2.8,2.3-5.4c-0.2-1.6-1.3-3.2-2.3-4.3c-1.2-1.3-4.2-2.8-4.2-2.8s3.9-2,6.1,0.4
	c1,1.1-0.2,2.6,0,2.8c0.2,0.2,2.1-0.3,1.9-2.6c-0.1-1.6-1.6-2.6-1.6-2.6s0.9-0.2,1.9-0.5c1.2-0.4,1.8-0.7,1.8-0.7v-2.2
	c0,0-1.2,0.4-2.2,0.8c-1.1,0.4-1.8,0.4-1.8,0.4s1.6-3.5-0.9-5.6c-3.5-2.9-6.4,0.6-6.2,1c0.2,0.4,2.7-1.7,4.5,0.5
	c1.4,1.7,0.8,3-1,4.1c-1.7,1.1-2.9,1.9-6,2.7C30.5,67.2,27.1,66.5,27.1,66.5"/>
<path class="st2" d="M26.3,85.1l0.9,2.3c0,0-2.5,4.2-9.1,4.3c-5,0.1-9.6-3.7-10.1-8.8c-0.4-4,0.7-5.6,0.6-7.4c0-1.7-0.2-2-0.6-2.9
	c-0.3-0.7,1.1-0.6,2,0.4c0.7,0.9,0.8,2.2,1.6,1.8c0.8-0.4,3.1-1.9,4.3-4.5c1.1-2.6-0.7-3.9,0.1-3.9c1-0.1,2.9,1.8,2.6,4.2
	c-0.3,2.4-1.5,3.4-1.5,3.4s0.7,0.1,1.8,0.6c1.1,0.6,3,2.3,3,2.5c-0.1,0.2-0.8-0.2-1.2-0.3c-0.4-0.1-0.6,0-0.6,0s1.9,1.6,1.5,4.8
	c-0.3,2.5-2.5,3.8-4.2,3.8c-2.7,0-3.6-2-3.5-3.2c0-0.5,0.3-0.7,0.6-0.6c0.4,0.1,1,1.8,2.9,1.5c1.3-0.1,2-1.2,1.9-2.3
	c-0.1-2.4-1.7-4.3-4.5-4.1c-2.3,0.2-4.6,1.8-4.2,5.8c0.4,3.7,3.5,6.7,7.9,6.8C23.9,89.5,26.3,85.1,26.3,85.1"/>
<path class="st2" d="M80.3,6.8c1.9,0.1,3.8,0.6,5.3,0.9C86.9,8,88.3,8.2,89.2,8c0.9-0.2,1.7-0.7,1.8-0.6c0.2,0.1,0,0.8-0.7,1.7
	c-0.7,0.9-1.7,1.1-1.7,1.5c0,0.4,2.1,2.8,2,6.6c-0.2,4.7-2.7,6.7-4.2,7.9c-1.2,1-1.2,2.1-1,2.8c0.4,1.2,1.4,2,2.5,2.5
	c1.3,0.6,2.9,0.6,3,0.9c0.2,0.4-0.6,0.9-1.3,1.2c-0.7,0.4-1.4,0.4-1.4,0.4s1.7,1.6,1.7,3.6c0,2-0.4,3.1-1.6,4
	c-1.2,0.9-2.8,0.6-2.8,0.4c-0.1-0.4,0.6-0.6,1.2-1c0.6-0.4,1-1,0.9-1.3c-0.1-0.4-1,0.2-1.3-0.2c-0.3-0.4,0.3-0.6,0.4-1.3
	c0.1-0.8,0.2-2.7-0.9-3c-0.4-0.1-0.1,1.5-0.7,2.3c-0.6,0.8-1.7,1.4-1.9,1c-0.2-0.3,0.6-1.2,0.4-4.1c-0.1-1.4-1.4-3.1-1.5-4.3
	c-0.1-1.1,0.1-1.5,0.8-1.9c0.6-0.4,0.5-0.8,0.3-1.1c-0.2-0.2-3.9,0.6-6.3-2.5c-1.6-2-1.7-3.9-1.4-6.1c0,0-0.2-0.8-0.9-1.5
	c-0.6-0.5-1.3-0.6-1.3-0.8c0-0.2,0.7-0.6,1.9-0.4c0.7,0.1,1.2,0.4,1.2,0.4s1.7-2.1,4.7-1.8c1.8,0.1,3.5,1.8,3.6,3.6
	c0,1.8-0.8,2.7-1.6,3c-1.1,0.4-1.8,0-1.9-0.5c0-0.5,1.4-0.3,1.5-2c0.1-1-0.7-2.1-2.1-2.1c-2.4,0.1-3.6,2.1-3.1,4.9
	c0.4,2.1,2.5,3.9,5.3,3.6c3.2-0.3,5.5-3.5,5.6-6.6c0-3.4-2-7.7-7.6-7.9c-5.4-0.2-8.6,3.2-9.7,4.6c-1.2,1.4-2.9,5.3-2.9,5.3
	s1.2-0.3,2.3,0.2c0.9,0.4,2,1.4,1.8,1.9c-0.2,0.4-1.3-0.4-2.8-0.2c-1.5,0.2-2.2,0.7-2.2,0.7l-1.9-1c0,0,1.2-5.9,4.7-9.5
	C71.9,9.4,75.4,6.5,80.3,6.8"/>
<path class="st2" d="M78.5,46.1c-2.2-4.1-4.1-6.8-7.3-7.6c-3.6-0.9-5.6,1.7-6.1,1.2c-0.5-0.5,0.3-1.4,1.1-2.3
	c1.1-1.2,1.9-1.6,1.9-1.6s-0.9-0.3-1.7-0.3c-0.9,0-2,0.6-2.1,0.2c-0.1-0.4,1.8-1.5,3.1-2.1c1.3-0.5,2.3-0.6,2.3-0.6S69.3,31,69.3,28
	c-0.1-3,0.8-4.9,1.4-4.6c0.3,0.1,0.2,1.1,0.4,2.2c0.3,1.7,1.1,2.3,1.3,2.2c0.2-0.1,0-0.8,0.4-1.9c0.5-1.3,1.6-2.7,1.6-1.9
	c0,1.3-0.3,2.2,0.1,4.8c0.4,2.8,1.9,2.8,1.9,2.8s0.5-1.2,1.4-2.2c0.9-1,1.6-2.2,1.9-1.7c0.3,0.4-1,2.5-1.2,5.5
	c-0.2,3.4,0.7,6.6,0.7,6.6s-0.4-0.7-1.8-2.4c-1.4-1.6-2.1-1.7-3.6-3.5c-1.8-2.2-1.3-3.6-2-3.6c-0.4,0,0,2.7,0.9,4.2
	c1,1.4,2.1,2.1,4,4.3c2.9,3.6,4.6,8.2,4.6,8.2s1.8-3.4,6.2-3.2c3.3,0.1,5.3,3.1,5.1,5.6c-0.4,4.8-4.3,5.2-4.6,4.6
	c-0.2-0.4,0.6-0.4,1.5-1.2c1.2-1.1,1.1-1.5,1-1.8c-0.1-0.2-0.3,0-0.7,0.2c-0.5,0.3-0.9,0.2-1-0.1c-0.1-0.2,0.5-0.6,0.7-1
	c1.1-2.1-0.2-4.4-2.4-4.3c-1.5,0.1-4.5,1.1-4.6,4.4c-0.1,3.3-0.3,10.3-0.3,10.3s-0.3,0-1-0.3c-0.7-0.2-1.1-0.4-1.1-0.4
	S81.2,51.2,78.5,46.1"/>
<path class="st2" d="M62.5,21.2v2.3c0,0,0.9,0.2,2.8,1.3c1.6,1,2.7,1.8,2.7,1.8l0.4-2.2c0,0-0.3-0.4-2.7-1.8
	C63.4,21.3,62.5,21.2,62.5,21.2"/>
<path class="st2" d="M64.3,25.9l2.1,1.1c0,0-0.2,1.1-0.1,2.8c0.1,1.8,0.2,2.8,0.2,2.8l-1.9,1.1c0,0-0.3-1.5-0.5-3.7
	C64,27.2,64.3,25.9,64.3,25.9"/>
<path class="st2" d="M68.7,39.9c0,0-0.1-0.2-0.9,0.1c-0.8,0.3-1,0.7-1,0.7l0.4,1c0,0,0.5-0.5,1-0.7c0.6-0.3,1-0.2,1-0.2L68.7,39.9z"
	/>
<path class="st2" d="M78.3,49.3c0,0-1.9-0.7-4.4-2.8c-1.8-1.5-1.6-1.3-1.6-1.3s-0.5-0.4-1.6-0.3c-1,0.1-1,0.5-1,0.5s1.1,1.1,2.2,2.2
	c1.3,1.2,2.8,2.1,2.8,2.1s-1,2.6-4,2.6c-2.1,0-4.3-1.6-4.3-4.4c0-2.9,2.7-4.3,4.3-4.3c1.8,0,2.7,1.3,3.2,1.1
	c0.8-0.3,0.1-2.6-2.9-2.8c-3.1-0.2-5,2.1-5,2.1s0-0.4-0.5-0.8c-0.5-0.4-1-0.6-1.2-0.4c-0.2,0.2,0.4,0.5,0.6,1.5
	c0.2,1-0.5,2.5-0.3,4.2c0.3,2.5,2.3,5.6,5.6,5.5c2.5,0,3.4-0.7,3.4-0.7s-0.6,0.8,0.2,1.6c1,0.9,2.3,0.3,2.5,1.1
	c0.1,0.7-0.1,0.7-0.7,1c-0.5,0.2-1.2-0.2-1.1,0.3c0.1,0.4,0.7,0.5,1.4,0.4c0.8-0.1,1.9-0.5,1.9-2.1c0-3-3.3-2.7-2.7-3.3
	c1-0.9,1.2-1.7,1.2-1.7s0.4,0.3,1.1,0.5c0.7,0.2,1.2,0.4,1.2,0.4L78.3,49.3z"/>
<path class="st2" d="M62.5,59.5v2.1c0,0,3,0.3,5,1c1.3,0.4,4.6,1.8,4.5,5.1c-0.1,3.1-2.9,4.3-4.1,4.3c-1.8-0.1-2.9-1-2.9-2.5
	c0-1,0.8-1.6,1.6-1.7c1.2-0.1,1.2,1,1.7,0.7c0.5-0.3,0.4-1.8-1.8-2c-1.2-0.1-3.2,0.6-3.2,3c0,2.9,2.3,4.6,4.9,4.5
	c2.8-0.1,5.6-2.7,5.8-5.7c0.1-1,0.1-1.1,0.1-1.1s0.4,0.2,0.9-0.1c0.6-0.3,1.1-1.3,1-1.5c-0.1-0.3-0.8,0.4-1.5-0.2
	c-0.8-0.5-1.6-1.5-2.2-2.2c-0.5-0.7-1.6-1.3-1.6-1.3s4.5,0.1,8.3,2.1c4,2.1,5.1,6.2,5.2,6.3s0.5-0.4,0.6-1.8
	c0.2-1.5-0.3-2.3-0.3-2.3s2.6,2,3.7,4.1C91,75,89.2,78,89.2,78l0.5,3.1c0,0,2.6-2.2,2.1-7.5c-0.5-5.5-5.8-9.2-5.8-9.2
	s1.3,0.1,2.7-0.9c1.6-1.1,1.6-3.7,1.3-3.7c-0.4,0-0.5,1.2-1.8,2c-1.3,0.8-2.8,0.8-4.7,0.5c-1.9-0.3-3.8-1-7.7-1.9
	c-3.4-0.8-6.2-1.2-6.2-1.2s0.7-0.1,1.1-1.3c0.3-0.9-0.1-1.7-0.2-1.7c-0.2,0-0.2,0.8-1.9,1.5C65.4,59,62.5,59.5,62.5,59.5"/>
<path class="st2" d="M80.5,66.6c0,0,0-0.1-0.8-0.7c-0.7-0.5-1-0.5-1-0.5s-1,2.8-1.8,4.7c-0.7,1.7-1,2.5-2.3,3.4
	c-1.2,0.8-1.7,0.2-1.8,0.5c-0.1,0.3,0.2,0.6,1,0.7c0.9,0.1,1.3,0,1.3,0.2c0,0.3-0.6,0.5-0.3,0.7c0.2,0.1,0.4,0.1,0.8,0.4
	c0.6,0.4,0.6,0.5,0.6,0.5s1.1-1.8,2.5-5C79.8,68.8,80.5,66.6,80.5,66.6"/>
<path class="st2" d="M83.8,85.6l0.5-2.2c0,0-0.4,0.3-1.7,0.2c-1.4-0.1-2.7-1.3-2.8-2.8c-0.2-1.7,0.8-3.2,2.3-3.4
	c0.8-0.2,1.5-0.1,1.8,0.7c0.6,1.6-1.2,2-1.2,2.2c0,0.3,0.9,1.2,2,0.6c1.6-0.9,1-2,1.4-1.3c0.8,1.4-1,6-1.3,7.1
	c-0.3,1.2-0.6,2.4,0.3,3.8c1.1,1.8,3.7,1.8,4,1.4c0.2-0.4-0.3-0.3-0.8-0.7c-0.5-0.4-0.7-0.8-0.5-0.8c0.2-0.1,0.2,0.3,1.2,0.3
	c1.2,0,1.8-0.7,1.7-1.4c0-0.4-1.4,1.2-2.3-1.6c-0.8-2.3,0.2-7-0.7-9.3c-0.5-1.5-2.4-3-4.8-3.1c-2.8-0.1-5.1,2.5-5.1,5.3
	c0,2.5,2.3,4.8,4.3,5C83.7,85.7,83.8,85.6,83.8,85.6"/>
<path class="st2" d="M66.4,81.1c0,0-0.1,0.2-1.2,0.3c-1.1,0.1-1.1,0-1.1,0s1.2-4.7,5.8-5.3c4.8-0.6,6.8,2.6,6.8,2.6
	s-0.2,0.4-0.2,1.6c0,0.7,0.1,1.1,0.1,1.1s-1.7-3.5-6.1-3.3C67.6,78.3,66.4,81.1,66.4,81.1"/>
<path class="st2" d="M68.7,88.1l-1.4,1.4c0,0,0.9,1.4,5.1,0.9c5.8-0.7,4-6.2,3.7-6.1c-0.3,0-0.2,1-0.8,2c-0.8,1.2-1.3,1.1-1.3,1.1
	s0.2-0.3,0.2-1c0-0.7-0.1-1.1-0.3-1.1c-0.2,0-0.4,2-2.4,2.7C69.7,88.5,68.7,88.1,68.7,88.1"/>
<path class="st2" d="M72.1,79.7c0,0,0.4-0.1,1.1,0.3c0.7,0.3,0.6,0.6,0.6,0.6s-1.8,2.3-5.5,6c-6.1,6.3-8.2,6.3-8.6,5.8
	c-0.2-0.2,0.3-0.2,1.2-1.2c0.9-1,1-1.5,1-1.5s-1.9,1-4.1,0.8c-2.3-0.2-4.2-1.6-4-2.2c0.1-0.5,1.5,0.3,3.1,0.1
	c1.5-0.2,1.6-0.8,1.6-0.8s-0.3,0-0.8-0.5c-0.5-0.5-1.2-0.9-0.8-1.3c0.2-0.2,1.4,0.2,2.5,0.2c1.4,0,2.3-0.3,2.3-0.3s-0.6-0.2-1.2-0.7
	c-0.6-0.5-0.7-1.1-0.6-1.3c0.1-0.1,0.4,0.4,1.1,0.3c0.9,0,1-0.2,1-0.2s-0.4-0.3-0.6-0.6c-0.2-0.3-0.7-1.3-0.4-1.7
	c0.1-0.1,1.2,1.1,2.7,1.2c2.7,0.2,5.5-1.8,5.5-1.8s-1.4,1.7-4.4,4.1c-1.9,1.6-4.4,2.9-4.2,3.2c0.2,0.4,2.1-0.1,5.4-2.7
	C68.8,83.4,72.1,79.7,72.1,79.7"/>
<path class="st1" d="M8,105.1c0,1.9,0.6,3.7,3.7,6.2l1.3,1c2.5,2,3.1,3.1,3.1,4.9c0,1.7-1.3,3.5-3.8,3.5c-1,0-3.4-0.3-3.9-2.7
	c-0.1-0.4-0.1-0.7-0.1-1c0-0.2,0-0.5-0.4-0.5c-0.4,0-0.4,0.4-0.4,0.6c0,0,0,0.3,0,0.3c0,0.6-0.1,1.5-0.1,2.6c0,0.8,0,1,0.5,1.2l0,0
	c1.1,0.5,2.3,0.8,3.8,0.8c1.7,0,3.2-0.4,4.3-1.2c1.8-1.3,2.4-3.3,2.4-4.8c0-2.2-0.7-4-4.1-6.7l-0.8-0.6c-2.7-2.2-3.3-3.1-3.3-4.5
	c0-1.8,1.3-3,3.2-3c2.3,0,3.1,1,3.3,1.4c0.1,0.3,0.3,1,0.3,1.3c0,0.2,0.1,0.5,0.4,0.5c0.4,0,0.4-0.5,0.4-0.8c0-1.5,0.1-2.4,0.1-2.7
	l0-0.2c0-0.4-0.4-0.4-0.5-0.4c-0.2,0-0.4,0-0.9-0.1c-0.8-0.2-1.6-0.3-2.6-0.3C10.3,99.9,8,102,8,105.1"/>
<path class="st1" d="M23.7,100.5L23.7,100.5c0,0.1-0.6,2.7-0.6,3c0,0.3,0.2,0.4,0.3,0.4c0.3,0,0.4-0.2,0.5-0.4c0,0,0.5-0.8,0.5-0.8
	c0.4-0.6,1-0.8,2.7-0.8c0,0,3.6,0,3.9-0.1v11.6c0,2.6,0,4.9-0.1,6c-0.1,0.8-0.2,1.3-0.7,1.4c0,0-0.8,0.1-0.8,0.1
	c-0.3,0-0.4,0.2-0.4,0.4c0,0.4,0.5,0.4,0.6,0.4l2.3-0.1l0.5,0l0.3,0l3.1,0.1c0.6,0,0.6-0.3,0.6-0.4c0-0.2-0.1-0.4-0.4-0.4l-1.2-0.1
	c-0.7-0.1-0.8-0.5-0.9-1.4c-0.1-1.2-0.1-3.4-0.1-6v-11.6c0.3,0,3.3,0.1,3.3,0.1c2.7,0.1,3.2,0.7,3.2,1.4c0,0,0,0.3,0,0.3
	c0,0.3,0,0.6,0.4,0.6c0.1,0,0.4,0,0.4-0.6l0-0.9l0.1-2.2c0-0.2,0-0.5-0.3-0.5l-0.3,0.1c-0.4,0.1-1.1,0.2-2.4,0.2H27.5
	c-0.3,0-1.4-0.1-2.2-0.1c-0.5,0-0.7-0.1-0.9-0.2l-0.3-0.1C23.9,99.9,23.8,100.1,23.7,100.5"/>
<path class="st1" d="M45.3,110.9c0,5.4,3.4,11.1,11,11.1c6.5,0,11.3-4.9,11.3-11.6c0-6.4-4.5-10.6-11.1-10.6
	C48.3,99.9,45.3,106.7,45.3,110.9 M48.3,110.2c0-5.5,3-9,7.9-9c4,0,8.3,3.2,8.3,10.1c0,8.9-6.2,9.4-7.5,9.4
	C51.9,120.6,48.3,116.3,48.3,110.2"/>
<path class="st1" d="M78.2,100.3l-1.3,0l-2.8-0.1c-0.2,0-0.6,0-0.6,0.4c0,0.2,0.2,0.4,0.4,0.4c0.2,0,0.7,0,0.9,0.1
	c0.8,0.2,1,0.5,1.1,1.4c0.1,0.9,0.1,1.7,0.1,6v4.9c0,2.6,0,4.9-0.1,6c-0.1,0.8-0.2,1.3-0.7,1.4c0,0-0.8,0.1-0.8,0.1
	c-0.3,0-0.4,0.2-0.4,0.4c0,0.4,0.5,0.4,0.6,0.4l2.5-0.1l0.1,0l0.3,0l3.1,0.1c0.6,0,0.6-0.3,0.6-0.4c0-0.2-0.1-0.4-0.4-0.4l-1.2-0.1
	c-0.7-0.1-0.8-0.5-0.9-1.4c-0.1-1.2-0.1-3.4-0.1-6v-0.7c0,0,0,0,0,0l3.4,0.1c0.1,0,0.1,0,0.2,0.1c0,0,1,1.4,1,1.4l2.3,3.2
	c1.4,1.8,2.3,3.1,3.5,3.7c0.8,0.4,1.5,0.6,3.1,0.6h2c0.3,0,0.9,0,0.9-0.4c0-0.2-0.2-0.4-0.4-0.4l-1.1-0.1c-0.7-0.1-1.9-0.4-3.3-1.9
	c-1.4-1.5-3.1-3.6-5-6.1c0,0-0.6-0.7-0.7-0.9c2.2-2.1,3.3-4.2,3.3-6.4c0-2-1.3-3.4-2-3.9c-1.5-1.1-3.5-1.3-5.2-1.3L78.2,100.3z
	 M78.6,111.1c-0.1-0.1-0.1-0.1-0.1-0.2v-9.1c0-0.1,0-0.1,0.1-0.2c0.2-0.1,1-0.2,1.8-0.2c2.9,0,4.6,2,4.6,5.4c0,1.9-0.6,3.4-1.6,4.1
	c-0.6,0.4-1.4,0.5-2,0.5C80.1,111.5,78.9,111.3,78.6,111.1"/>
<path class="st1" d="M95.3,3H3v93.1h93.1V3H95.3z M94.4,94.4H4.7V4.7h89.7V94.4z"/>
<path class="st1" d="M92,145.1c-0.4-1.4-0.9-2.5-1.5-3.5c-0.6-0.9-1.3-1.7-2.1-2.2c-0.8-0.5-1.6-0.9-2.4-1.2
	c-0.9-0.2-1.7-0.3-2.6-0.3c-1.3,0-2.6,0.2-3.6,0.6s-1.9,0.9-2.7,1.6c-0.7,0.7-1.3,1.5-1.7,2.5c-0.4,0.9-0.6,1.9-0.6,3
	c0,1.1,0.2,2,0.5,2.8c0.3,0.8,0.8,1.5,1.4,2.1c0.6,0.6,1.3,1.1,2,1.5s1.6,0.8,2.6,1.1l3.4,1.2c1.7,0.6,3,1.4,3.7,2.3
	c0.7,0.9,1.1,2,1.1,3.3c0,0.8-0.1,1.5-0.4,2.1c-0.3,0.6-0.6,1.2-1.1,1.6c-0.5,0.5-1.1,0.8-1.8,1.1c-0.7,0.3-1.5,0.4-2.3,0.4
	c-2,0-3.6-0.5-4.7-1.5c-1.1-1-2-2.6-2.7-4.8l-2.8,1c0.8,2.7,2.1,4.6,3.7,5.9c1.6,1.3,3.8,1.9,6.4,1.9c1.3,0,2.4-0.2,3.5-0.6
	c1.1-0.4,2-0.9,2.7-1.6c0.8-0.7,1.4-1.6,1.8-2.5c0.4-1,0.6-2.1,0.6-3.3c0-2.1-0.5-3.7-1.6-4.9c-1.1-1.2-2.9-2.3-5.3-3.2l-3.3-1.2
	c-1.6-0.6-2.7-1.2-3.4-2c-0.7-0.7-1.1-1.8-1.1-3.1c0-1.4,0.5-2.6,1.5-3.4c1-0.9,2.3-1.3,3.9-1.3c1.6,0,2.9,0.5,3.9,1.4
	c0.9,0.9,1.7,2.3,2.3,4.2L92,145.1z M54.9,164.5v-11.2h3.6c2.9,0,5,0.5,6.3,1.5c1.3,1,2,2.6,2,4.7c0,1.6-0.5,2.8-1.4,3.7
	c-0.9,0.9-2.5,1.3-4.8,1.3H54.9z M54.9,150.7v-9.9h5.4c2.2,0,3.7,0.4,4.6,1.3c0.9,0.8,1.4,2,1.4,3.5c0,1.6-0.5,2.8-1.5,3.7
	c-1,0.9-2.6,1.4-4.7,1.4H54.9z M51.7,138.3v28.8H61c2.8,0,5-0.6,6.6-1.9c1.6-1.3,2.4-3.3,2.4-6c0-1.1-0.2-2.1-0.5-3
	c-0.3-0.8-0.7-1.6-1.3-2.1c-0.5-0.6-1.1-1-1.8-1.4c-0.7-0.4-1.4-0.6-2.1-0.8c0.7-0.2,1.4-0.4,2-0.8c0.6-0.4,1.2-0.8,1.6-1.3
	c0.5-0.5,0.8-1.2,1.1-1.9c0.3-0.7,0.4-1.5,0.4-2.4c0-1-0.2-2-0.5-2.9c-0.3-0.9-0.8-1.6-1.5-2.3c-0.7-0.6-1.6-1.1-2.6-1.5
	c-1.1-0.4-2.3-0.5-3.7-0.5H51.7z M33,155.5l3.6-12.7c0.1-0.4,0.2-0.8,0.3-1.2c0.1-0.4,0.2-0.8,0.3-1.3c0.1,0.4,0.1,0.8,0.2,1.2
	c0.1,0.4,0.2,0.8,0.3,1.2l3.3,12.8H33z M32.3,158h9.5l2.4,9.1h3.1l-7.9-28.9h-4.3l-8.5,28.9h3.1L32.3,158z M10.6,138.3H7.5v28.8H23
	v-2.7H10.6V138.3z"/>
</svg>
